<svg width="62" height="76" viewBox="0 0 62 76" fill="none" xmlns="http://www.w3.org/2000/svg" xmlns:xlink="http://www.w3.org/1999/xlink">
<path d="M41,34.111C41,32.454 39.657,31.111 38,31.111C36.343,31.111 35,32.454 35,34.111L41,34.111ZM35,57.444C35,59.101 36.343,60.444 38,60.444C39.657,60.444 41,59.101 41,57.444L35,57.444ZM27,34.111C27,32.454 25.657,31.111 24,31.111C22.343,31.111 21,32.454 21,34.111L27,34.111ZM21,57.444C21,59.101 22.343,60.444 24,60.444C25.657,60.444 27,59.101 27,57.444L21,57.444ZM13,18.556C13,16.899 11.657,15.556 10,15.556C8.343,15.556 7,16.899 7,18.556L13,18.556ZM10,65.222L7,65.222L10,65.222ZM55,18.556C55,16.899 53.657,15.556 52,15.556C50.343,15.556 49,16.899 49,18.556L55,18.556ZM3,15.556C1.343,15.556 0,16.899 0,18.556C0,20.212 1.343,21.556 3,21.556L3,15.556ZM59,21.556C60.657,21.556 62,20.212 62,18.556C62,16.899 60.657,15.556 59,15.556L59,21.556ZM10.764,17.324C10.084,18.835 10.758,20.611 12.269,21.291C13.78,21.971 15.556,21.298 16.236,19.787L10.764,17.324ZM20.5,3L20.5,0C19.319,0 18.249,0.692 17.764,1.769L20.5,3ZM41.5,3L44.236,1.769C43.751,0.692 42.681,0 41.5,0L41.5,3ZM45.764,19.787C46.444,21.298 48.22,21.971 49.731,21.291C51.242,20.611 51.916,18.835 51.236,17.324L45.764,19.787ZM35,34.111L35,57.444L41,57.444L41,34.111L35,34.111ZM21,34.111L21,57.444L27,57.444L27,34.111L21,34.111ZM7,18.556L7,65.222L13,65.222L13,18.556L7,18.556ZM7,65.222C7,67.985 7.985,70.689 9.82,72.729L14.28,68.715C13.49,67.837 13,66.585 13,65.222L7,65.222ZM9.82,72.729C11.665,74.779 14.24,76 17,76L17,70C16.047,70 15.061,69.582 14.28,68.715L9.82,72.729ZM17,76L45,76L45,70L17,70L17,76ZM45,76C47.76,76 50.335,74.779 52.18,72.729L47.72,68.715C46.939,69.582 45.953,70 45,70L45,76ZM52.18,72.729C54.015,70.689 55,67.985 55,65.222L49,65.222C49,66.585 48.51,67.837 47.72,68.715L52.18,72.729ZM55,65.222L55,18.556L49,18.556L49,65.222L55,65.222ZM3,21.556L59,21.556L59,15.556L3,15.556L3,21.556ZM16.236,19.787L23.236,4.231L17.764,1.769L10.764,17.324L16.236,19.787ZM20.5,6L41.5,6L41.5,0L20.5,0L20.5,6ZM38.764,4.231L45.764,19.787L51.236,17.324L44.236,1.769L38.764,4.231Z" fill="#FFFFFF"/>
</svg>
