<svg width="66" height="82" viewBox="0 0 66 82" fill="none" xmlns="http://www.w3.org/2000/svg" xmlns:xlink="http://www.w3.org/1999/xlink">
<path d="M3,74.5C1.343,74.5 0,75.843 0,77.5C0,79.157 1.343,80.5 3,80.5L3,74.5ZM63,80.5C64.657,80.5 66,79.157 66,77.5C66,75.843 64.657,74.5 63,74.5L63,80.5ZM9.247,44.946L7.016,42.941L7.016,42.941L9.247,44.946ZM6.75,51.655L9.75,51.655L9.75,51.654L6.75,51.655ZM6.75,65L3.75,65C3.75,66.657 5.093,68 6.75,68L6.75,65ZM24.874,62.217L22.643,60.211L22.642,60.213L24.874,62.217ZM60.499,22.614L62.729,24.62L62.73,24.619L60.499,22.614ZM62.998,15.905L65.998,15.905L62.998,15.905ZM60.499,9.197L58.267,11.202L58.268,11.203L60.499,9.197ZM56.981,5.281L59.213,3.276L59.212,3.274L56.981,5.281ZM44.899,5.285L47.13,7.29L47.13,7.29L44.899,5.285ZM3,80.5L63,80.5L63,74.5L3,74.5L3,80.5ZM7.016,42.941C4.895,45.302 3.749,48.441 3.75,51.655L9.75,51.654C9.75,49.838 10.401,48.151 11.479,46.952L7.016,42.941ZM3.75,51.655L3.75,65L9.75,65L9.75,51.655L3.75,51.655ZM6.75,68L18.836,68L18.836,62L6.75,62L6.75,68ZM18.836,68C22.006,68 24.972,66.598 27.106,64.221L22.642,60.213C21.573,61.403 20.196,62 18.836,62L18.836,68ZM27.104,64.223L62.729,24.62L58.268,20.607L22.643,60.211L27.104,64.223ZM62.73,24.619C64.852,22.259 65.998,19.12 65.998,15.905L59.998,15.905C59.998,17.722 59.346,19.409 58.268,20.608L62.73,24.619ZM65.998,15.905C65.998,12.69 64.852,9.552 62.73,7.191L58.268,11.203C59.346,12.402 59.998,14.089 59.998,15.905L65.998,15.905ZM62.731,7.193L59.213,3.276L54.749,7.285L58.267,11.202L62.731,7.193ZM59.212,3.274C58.156,2.101 56.886,1.151 55.463,0.497L52.955,5.947C53.606,6.247 54.22,6.696 54.751,7.287L59.212,3.274ZM55.463,0.497C54.04,-0.158 52.501,-0.501 50.938,-0.5L50.94,5.5C51.622,5.5 52.305,5.648 52.955,5.947L55.463,0.497ZM50.938,-0.5C49.375,-0.499 47.837,-0.156 46.414,0.5L48.926,5.949C49.575,5.649 50.259,5.5 50.94,5.5L50.938,-0.5ZM46.414,0.5C44.992,1.155 43.722,2.106 42.667,3.28L47.13,7.29C47.661,6.699 48.274,6.249 48.926,5.949L46.414,0.5ZM42.668,3.279L7.016,42.941L11.479,46.952L47.13,7.29L42.668,3.279Z" fill="#FFFFFF"/>
</svg>
