<svg width="40" height="38" viewBox="0 0 40 38" fill="none" xmlns="http://www.w3.org/2000/svg">
<path d="M20 5.3875C11.53 5.3875 4.29662 11.0321 1.366 19C4.29662 26.9678 11.53 32.6125 20 32.6125C28.47 32.6125 35.7034 26.9678 38.634 19C35.7034 11.0321 28.47 5.3875 20 5.3875ZM20 28.075C15.3246 28.075 11.53 24.0094 11.53 19C11.53 13.9906 15.3246 9.925 20 9.925C24.6754 9.925 28.47 13.9906 28.47 19C28.47 24.0094 24.6754 28.075 20 28.075ZM20 13.555C17.188 13.555 14.918 15.9871 14.918 19C14.918 22.0129 17.188 24.445 20 24.445C22.812 24.445 25.082 22.0129 25.082 19C25.082 15.9871 22.812 13.555 20 13.555Z" fill="white"/>
</svg>
