<svg width="210" height="70" viewBox="0 0 210 70" fill="none" xmlns="http://www.w3.org/2000/svg">
<path d="M40.5 21H64.5" stroke="black" stroke-width="4" stroke-linecap="round" stroke-linejoin="round"/>
<path d="M40.5 35H64.5" stroke="black" stroke-width="4" stroke-linecap="round" stroke-linejoin="round"/>
<path d="M40.5 49H64.5" stroke="black" stroke-width="4" stroke-linecap="round" stroke-linejoin="round"/>
<path d="M28.5 39C30.7091 39 32.5 37.2091 32.5 35C32.5 32.7909 30.7091 31 28.5 31C26.2909 31 24.5 32.7909 24.5 35C24.5 37.2091 26.2909 39 28.5 39Z" fill="#2F88FF" stroke="black" stroke-width="4" stroke-linecap="round" stroke-linejoin="round"/>
<path d="M28.5 53C30.7091 53 32.5 51.2091 32.5 49C32.5 46.7909 30.7091 45 28.5 45C26.2909 45 24.5 46.7909 24.5 49C24.5 51.2091 26.2909 53 28.5 53Z" fill="#2F88FF" stroke="black" stroke-width="4" stroke-linecap="round" stroke-linejoin="round"/>
<path d="M24.5 21L27.5 24L33.5 18" stroke="black" stroke-width="4" stroke-linecap="round" stroke-linejoin="round"/>
<path d="M90.82 52.2C89.2733 52.2 87.5267 52.0667 85.58 51.8C84.5133 51.6667 83.78 51.3867 83.38 50.96C82.98 50.5333 82.8067 49.84 82.86 48.88C83.0467 46.24 83.4867 42.9867 84.18 39.12C84.8733 35.2267 85.7133 31.48 86.7 27.88C86.8867 27.2133 87.26 26.7467 87.82 26.48C88.38 26.2133 89.1133 26.08 90.02 26.08C91.6467 26.08 92.46 26.5333 92.46 27.44C92.46 27.8133 92.38 28.24 92.22 28.72C91.5267 30.8533 90.8333 33.72 90.14 37.32C89.4467 40.8933 88.9533 44.3067 88.66 47.56C89.46 47.64 90.3667 47.68 91.38 47.68C96.0467 47.68 99.5267 46.2667 101.82 43.44C104.14 40.6133 105.3 36.84 105.3 32.12C105.3 28.9467 104.393 26.4933 102.58 24.76C100.767 23.0267 98.2067 22.16 94.9 22.16C92.7667 22.16 90.6467 22.4933 88.54 23.16C86.46 23.8267 84.58 24.7067 82.9 25.8C82.5533 26.04 82.18 26.16 81.78 26.16C81.3267 26.16 80.9667 25.9733 80.7 25.6C80.4333 25.2 80.3 24.72 80.3 24.16C80.3 23.52 80.4067 23 80.62 22.6C80.8333 22.1733 81.1933 21.7867 81.7 21.44C83.54 20.1867 85.7 19.24 88.18 18.6C90.66 17.9333 93.0467 17.6 95.34 17.6C98.5933 17.6 101.407 18.1733 103.78 19.32C106.153 20.44 107.98 22.0933 109.26 24.28C110.54 26.4667 111.18 29.1067 111.18 32.2C111.18 36.2267 110.38 39.7467 108.78 42.76C107.18 45.7467 104.847 48.0667 101.78 49.72C98.7133 51.3733 95.06 52.2 90.82 52.2ZM120.618 52.2C119.044 52.2 117.698 51.8133 116.578 51.04C115.484 50.24 114.658 49.2 114.098 47.92C113.538 46.64 113.257 45.2667 113.257 43.8C113.257 41.7733 113.631 39.9733 114.378 38.4C115.151 36.8 116.191 35.56 117.498 34.68C118.804 33.7733 120.271 33.32 121.898 33.32C123.471 33.32 124.818 33.72 125.938 34.52C127.058 35.2933 127.898 36.32 128.458 37.6C129.018 38.88 129.298 40.2533 129.298 41.72C129.298 43.7467 128.911 45.56 128.138 47.16C127.364 48.7333 126.311 49.9733 124.978 50.88C123.671 51.76 122.218 52.2 120.618 52.2ZM121.058 47.88C121.964 47.88 122.724 47.3867 123.338 46.4C123.978 45.4133 124.298 43.9733 124.298 42.08C124.298 40.6133 124.031 39.5067 123.498 38.76C122.964 38.0133 122.324 37.64 121.578 37.64C120.618 37.64 119.818 38.1333 119.178 39.12C118.564 40.08 118.258 41.52 118.258 43.44C118.258 44.96 118.524 46.08 119.058 46.8C119.591 47.52 120.258 47.88 121.058 47.88ZM147.808 30.72C146.688 30.72 145.848 30.4667 145.288 29.96C144.728 29.4267 144.448 28.6933 144.448 27.76C144.448 26.8267 144.808 26.0533 145.528 25.44C146.275 24.8 147.195 24.48 148.288 24.48C149.275 24.48 150.075 24.72 150.688 25.2C151.302 25.68 151.608 26.36 151.608 27.24C151.608 28.3067 151.262 29.16 150.568 29.8C149.875 30.4133 148.955 30.72 147.808 30.72ZM147.488 52.2C145.755 52.2 144.488 51.5867 143.688 50.36C142.915 49.1333 142.528 47.5067 142.528 45.48C142.528 44.28 142.675 42.7467 142.968 40.88C143.288 38.9867 143.688 37.2267 144.168 35.6C144.408 34.7467 144.728 34.16 145.128 33.84C145.528 33.52 146.168 33.36 147.048 33.36C148.408 33.36 149.088 33.8133 149.088 34.72C149.088 35.3867 148.835 36.9333 148.328 39.36C147.688 42.2933 147.368 44.28 147.368 45.32C147.368 46.12 147.475 46.7333 147.688 47.16C147.902 47.5867 148.262 47.8 148.768 47.8C149.248 47.8 149.848 47.4667 150.568 46.8C151.288 46.1333 152.248 45.08 153.448 43.64C153.768 43.2667 154.128 43.08 154.528 43.08C154.875 43.08 155.142 43.24 155.328 43.56C155.542 43.88 155.648 44.32 155.648 44.88C155.648 45.9467 155.395 46.7733 154.888 47.36C152.248 50.5867 149.782 52.2 147.488 52.2ZM159.012 37.16C158.959 38.4933 158.932 39.5333 158.932 40.28C158.932 42.2 159.026 43.7067 159.212 44.8C159.426 45.8667 159.759 46.64 160.212 47.12C160.692 47.5733 161.346 47.8 162.172 47.8C162.599 47.8 163.106 47.6667 163.692 47.4C164.279 47.1333 164.812 46.7867 165.292 46.36C165.586 46.0933 165.879 45.96 166.172 45.96C166.492 45.96 166.746 46.1467 166.932 46.52C167.146 46.8667 167.252 47.2933 167.252 47.8C167.252 48.3067 167.146 48.8 166.932 49.28C166.746 49.76 166.452 50.16 166.052 50.48C164.666 51.6267 163.092 52.2 161.332 52.2C158.799 52.2 156.946 51.1467 155.772 49.04C154.599 46.9067 154.012 44.1333 154.012 40.72C154.012 39.5467 154.052 38.36 154.132 37.16H152.572C151.772 37.16 151.226 37.0133 150.932 36.72C150.666 36.4267 150.532 35.96 150.532 35.32C150.532 33.8267 151.132 33.08 152.332 33.08H154.612C155.066 30.1467 155.759 27.4667 156.692 25.04C157.626 22.6133 158.746 20.68 160.052 19.24C161.386 17.8 162.812 17.08 164.332 17.08C165.452 17.08 166.332 17.5733 166.972 18.56C167.612 19.5467 167.932 20.7867 167.932 22.28C167.932 26.4133 166.199 30.0133 162.732 33.08H167.212C167.639 33.08 167.946 33.1733 168.132 33.36C168.319 33.5467 168.412 33.8933 168.412 34.4C168.412 36.24 166.906 37.16 163.892 37.16H159.012ZM163.252 20.92C162.852 20.92 162.399 21.4267 161.892 22.44C161.412 23.4267 160.946 24.8133 160.492 26.6C160.066 28.36 159.706 30.32 159.412 32.48C160.986 31.12 162.159 29.6 162.932 27.92C163.732 26.2133 164.132 24.6667 164.132 23.28C164.132 21.7067 163.839 20.92 163.252 20.92Z" fill="black"/>
</svg>
